<svg width="246" height="54" viewBox="0 0 246 54" fill="none" xmlns="http://www.w3.org/2000/svg">
<rect width="246" height="54" rx="27" fill="#DFFF9B"/>
<path d="M68.84 23.04C68.52 21.5 67.24 19.52 64.04 19.52C61.42 19.52 59.36 21.52 59.36 23.74C59.36 25.86 60.8 27.18 62.82 27.62L64.84 28.06C66.26 28.36 66.96 29.24 66.96 30.26C66.96 31.5 66 32.52 64.04 32.52C61.9 32.52 60.78 31.06 60.64 29.48L58.76 30.08C59.02 32.1 60.64 34.3 64.06 34.3C67.08 34.3 68.96 32.3 68.96 30.1C68.96 28.12 67.64 26.64 65.28 26.12L63.16 25.66C61.96 25.4 61.34 24.62 61.34 23.6C61.34 22.28 62.48 21.24 64.08 21.24C66.06 21.24 66.92 22.64 67.08 23.66L68.84 23.04ZM75.3002 25.82C76.9402 25.82 77.6402 26.92 77.8802 27.86L79.5802 27.14C79.1802 25.68 77.8602 24.08 75.3002 24.08C72.5602 24.08 70.4602 26.18 70.4602 29.18C70.4602 32.1 72.5202 34.3 75.3202 34.3C77.8202 34.3 79.2002 32.68 79.6602 31.3L78.0002 30.58C77.7802 31.34 77.1202 32.56 75.3202 32.56C73.7602 32.56 72.3802 31.38 72.3802 29.18C72.3802 26.94 73.7802 25.82 75.3002 25.82ZM81.168 31.42C81.168 32.94 82.428 34.3 84.388 34.3C86.108 34.3 87.068 33.38 87.488 32.7C87.488 33.4 87.548 33.76 87.588 34H89.428C89.388 33.76 89.308 33.26 89.308 32.42V27.6C89.308 25.72 88.188 24.08 85.308 24.08C83.228 24.08 81.568 25.36 81.368 27.2L83.168 27.62C83.288 26.5 84.028 25.68 85.348 25.68C86.808 25.68 87.428 26.46 87.428 27.4C87.428 27.74 87.268 28.04 86.688 28.12L84.088 28.5C82.428 28.74 81.168 29.7 81.168 31.42ZM84.648 32.72C83.688 32.72 83.088 32.04 83.088 31.32C83.088 30.46 83.688 30 84.488 29.88L87.428 29.44V29.88C87.428 31.98 86.188 32.72 84.648 32.72ZM94.1167 28.44C94.1167 26.98 94.8767 25.8 96.3567 25.8C98.0367 25.8 98.5967 26.88 98.5967 28.22V34H100.477V27.9C100.477 25.76 99.3367 24.1 97.0367 24.1C95.9167 24.1 94.7767 24.56 94.0767 25.76V24.38H92.2367V34H94.1167V28.44ZM110.987 21.34H109.267V22.9C109.267 23.74 108.827 24.38 107.787 24.38H107.267V26.08H109.107V31.36C109.107 33.1 110.147 34.1 111.787 34.1C112.427 34.1 112.907 33.98 113.067 33.92V32.32C112.907 32.36 112.567 32.4 112.327 32.4C111.347 32.4 110.987 31.96 110.987 31.08V26.08H113.067V24.38H110.987V21.34ZM116.699 28.2C116.779 26.96 117.739 25.74 119.319 25.74C121.019 25.74 121.919 26.82 121.959 28.2H116.699ZM122.239 30.7C121.879 31.78 121.099 32.64 119.539 32.64C117.919 32.64 116.679 31.44 116.639 29.72H123.879C123.899 29.6 123.919 29.36 123.919 29.12C123.919 26.12 122.259 24.08 119.299 24.08C116.879 24.08 114.699 26.14 114.699 29.16C114.699 32.42 116.959 34.3 119.539 34.3C121.779 34.3 123.319 32.96 123.859 31.26L122.239 30.7ZM124.821 34H127.061L129.501 30.46L131.981 34H134.241C133.661 33.22 131.281 29.88 130.701 29.1L134.121 24.38H131.901L129.581 27.76L127.221 24.38H124.941L128.401 29.1L124.821 34ZM138.663 21.34H136.943V22.9C136.943 23.74 136.503 24.38 135.463 24.38H134.943V26.08H136.783V31.36C136.783 33.1 137.823 34.1 139.463 34.1C140.103 34.1 140.583 33.98 140.743 33.92V32.32C140.583 32.36 140.243 32.4 140.003 32.4C139.023 32.4 138.663 31.96 138.663 31.08V26.08H140.743V24.38H138.663V21.34Z" fill="#1F2451"/>
<path d="M175 30.2C176.767 30.2 178.2 28.7673 178.2 27C178.2 25.2327 176.767 23.8 175 23.8C173.233 23.8 171.8 25.2327 171.8 27C171.8 28.7673 173.233 30.2 175 30.2Z" fill="#1F2451"/>
<path d="M172 17L170.17 19H167C165.9 19 165 19.9 165 21V33C165 34.1 165.9 35 167 35H183C184.1 35 185 34.1 185 33V21C185 19.9 184.1 19 183 19H179.83L178 17H172ZM175 32C172.24 32 170 29.76 170 27C170 24.24 172.24 22 175 22C177.76 22 180 24.24 180 27C180 29.76 177.76 32 175 32Z" fill="#1F2451"/>
</svg>
