<svg width="121" height="22" viewBox="0 0 121 22" fill="none" xmlns="http://www.w3.org/2000/svg">
<path d="M12.3167 19.9814H8.05301C7.90976 19.9811 7.76981 19.9383 7.65094 19.8583C7.53207 19.7784 7.43965 19.6649 7.38542 19.5323L0.0539246 1.58296C0.00899623 1.47342 -0.00826262 1.3545 0.00367275 1.23671C0.0156081 1.11891 0.0563703 1.00587 0.122358 0.90757C0.188346 0.809268 0.277529 0.728731 0.382027 0.673074C0.486526 0.617417 0.603123 0.588352 0.721519 0.588449H4.89915C5.04724 0.589495 5.19145 0.635907 5.31236 0.721432C5.43326 0.806957 5.52504 0.927485 5.57534 1.06678L9.51897 11.7345C9.57044 11.8735 9.66348 11.9932 9.78544 12.0774C9.90739 12.1616 10.0523 12.2062 10.2005 12.205C10.3487 12.2039 10.4929 12.1571 10.6136 12.0711C10.7342 11.9851 10.8255 11.8639 10.8748 11.7242L14.6464 1.06678C14.6971 0.925227 14.7906 0.802965 14.9139 0.716947C15.0372 0.63093 15.1843 0.585419 15.3346 0.586728H19.292C19.4092 0.586856 19.5246 0.615547 19.6282 0.670316C19.7318 0.725085 19.8204 0.804282 19.8865 0.901047C19.9526 0.997813 19.9941 1.10923 20.0075 1.22565C20.0208 1.34208 20.0055 1.45999 19.963 1.56919L12.9894 19.5203C12.9366 19.6558 12.8441 19.7723 12.7241 19.8545C12.6041 19.9367 12.4621 19.981 12.3167 19.9814Z" fill="#FF7373"/>
<path d="M39.5951 14.2087C39.6909 14.2369 39.7797 14.2847 39.856 14.3491C39.9323 14.4135 39.9943 14.493 40.0382 14.5827C40.082 14.6723 40.1067 14.7701 40.1107 14.8699C40.1147 14.9696 40.0979 15.0691 40.0614 15.162C38.857 18.1747 35.9027 20.5715 31.4894 20.5715C26.1692 20.5715 21.4789 16.7484 21.4789 10.2066C21.4789 4.01245 26.0505 0 31.0162 0C37.0142 0 40.5948 3.81974 40.5948 10.05C40.5948 10.3752 40.5793 10.7108 40.5621 10.9895C40.5511 11.1727 40.4705 11.3448 40.3368 11.4705C40.2031 11.5962 40.0264 11.666 39.8429 11.6657H27.4735C27.365 11.6653 27.2579 11.6893 27.1601 11.7362C27.0622 11.783 26.9763 11.8513 26.9086 11.936C26.8409 12.0207 26.7933 12.1197 26.7692 12.2254C26.7452 12.3312 26.7454 12.441 26.7697 12.5466C27.2859 14.6406 29.2388 16.079 31.5307 16.079C33.7003 16.079 35.0011 15.1155 35.7048 13.684C35.7801 13.5291 35.9079 13.4061 36.0655 13.3367C36.2231 13.2674 36.4001 13.2563 36.5651 13.3054L39.5951 14.2087ZM34.6054 8.07824C34.715 8.07779 34.8232 8.05245 34.9216 8.00413C35.0201 7.95581 35.1063 7.88576 35.1737 7.79927C35.2411 7.71279 35.288 7.61212 35.3109 7.50486C35.3338 7.3976 35.332 7.28655 35.3057 7.18008C34.9151 5.60057 33.6229 4.25505 31.0971 4.25505C28.8482 4.25505 27.4356 5.65563 26.9452 7.14223C26.9114 7.25008 26.9035 7.36439 26.9222 7.47587C26.9408 7.58735 26.9854 7.69287 27.0525 7.78387C27.1195 7.87487 27.2071 7.94879 27.308 7.99964C27.4089 8.05048 27.5205 8.07682 27.6335 8.07652L34.6054 8.07824Z" fill="#FF7373"/>
<path d="M56.5551 4.95706C56.5551 5.05721 56.5341 5.15624 56.4937 5.24785C56.4532 5.33946 56.3941 5.42164 56.3201 5.48914C56.2461 5.55664 56.1589 5.60799 56.064 5.63992C55.9691 5.67184 55.8685 5.68364 55.7688 5.67455C55.4918 5.64702 55.232 5.63498 54.9825 5.63498C52.3018 5.63498 49.9772 6.93576 49.9772 11.1134V19.2604C49.9768 19.4515 49.9007 19.6346 49.7656 19.7697C49.6305 19.9048 49.4474 19.9809 49.2563 19.9814H45.4452C45.2541 19.9809 45.071 19.9048 44.9359 19.7697C44.8008 19.6346 44.7247 19.4515 44.7242 19.2604V1.3111C44.7247 1.12004 44.8008 0.93693 44.9359 0.801827C45.071 0.666724 45.2541 0.590623 45.4452 0.590169H49.0877C49.2789 0.590169 49.4623 0.666124 49.5975 0.801325C49.7327 0.936526 49.8086 1.1199 49.8086 1.3111C49.8087 1.44941 49.8485 1.58478 49.9234 1.70108C49.9982 1.81738 50.1049 1.90969 50.2308 1.967C50.3567 2.02432 50.4964 2.04421 50.6333 2.02432C50.7701 2.00443 50.8984 1.94559 51.0027 1.85481C52.3259 0.689964 54.0998 0.433594 55.3266 0.433594C55.5176 0.433594 55.7017 0.433594 55.8806 0.452521C56.0623 0.465592 56.2322 0.547098 56.3561 0.680586C56.4801 0.814074 56.5487 0.989601 56.5482 1.17173L56.5551 4.95706Z" fill="#FF7373"/>
<path d="M62.4878 13.7562C62.6675 13.7158 62.8559 13.7456 63.0143 13.8397C63.1727 13.9338 63.289 14.0849 63.3395 14.2621C63.6939 15.5199 64.8123 16.5522 66.7618 16.5522C68.4961 16.5522 69.3237 15.6455 69.3237 14.62C69.3237 13.7597 68.7319 13.0439 67.2349 12.7273L64.6729 12.1354C60.9306 11.3095 59.2341 9.06414 59.2341 6.34387C59.2341 2.87685 62.3088 0 66.4865 0C71.4057 0 73.4119 2.7891 73.9556 4.87275C73.979 4.9659 73.9835 5.06281 73.9688 5.15772C73.9541 5.25264 73.9204 5.34363 73.8699 5.42531C73.8193 5.50698 73.7529 5.57768 73.6745 5.6332C73.5962 5.68872 73.5074 5.72794 73.4136 5.74854L70.406 6.42646C70.2332 6.46491 70.0524 6.43846 69.8978 6.35216C69.7433 6.26585 69.6259 6.12572 69.5681 5.95845C69.2239 4.97083 68.343 3.97976 66.526 3.97976C65.1496 3.97976 64.0415 4.80737 64.0415 5.912C64.0415 6.85661 64.7521 7.4485 65.8154 7.64464L68.5684 8.23653C72.3899 9.02457 74.3221 11.3491 74.3221 14.1881C74.3221 17.3403 71.8788 20.5715 66.7945 20.5715C61.5621 20.5715 59.4062 17.5278 58.847 15.3065C58.8239 15.2131 58.8198 15.116 58.835 15.021C58.8501 14.926 58.8843 14.835 58.9353 14.7535C58.9864 14.672 59.0533 14.6015 59.1321 14.5464C59.2109 14.4912 59.3 14.4525 59.3941 14.4324L62.4878 13.7562Z" fill="#FF7373"/>
<path d="M120.541 8.41546L118.493 7.17663C118.281 7.04784 118.026 7.00672 117.784 7.06194C117.542 7.11716 117.33 7.26439 117.194 7.47257C112.924 13.9352 106.263 16.9634 102.33 16.0549H102.308C102.123 16.0079 101.956 15.9065 101.829 15.7637C101.703 15.621 101.622 15.4435 101.597 15.2542C101.573 15.065 101.605 14.8727 101.691 14.7022C101.777 14.5318 101.912 14.391 102.079 14.2982C105.176 12.557 108.49 9.82464 108.662 4.92263C108.757 2.24537 107.37 1.04783 106.535 0.572946C104.877 -0.369945 102.6 -0.104972 100.444 1.28184C97.6776 3.06266 94.6287 7.16802 95.1431 12.8787C95.1495 12.9534 95.1344 13.0284 95.0997 13.0948C95.065 13.1613 95.012 13.2164 94.947 13.2538C91.929 14.9641 88.9249 16.1599 86.1599 16.7432L86.0928 16.7552C85.7486 16.8034 84.3412 16.9273 83.2434 16.079L83.2262 16.0653C83.1737 16.0229 83.1334 15.9673 83.1094 15.9042C83.0855 15.8411 83.0788 15.7727 83.09 15.7061C83.1012 15.6396 83.1299 15.5772 83.1732 15.5254C83.2165 15.4736 83.2728 15.4343 83.3363 15.4114C85.313 14.668 87.083 13.4621 88.4982 11.8945C90.353 9.80055 91.2511 7.29879 91.0791 4.65766C90.9242 2.26602 89.5667 1.26119 88.77 0.872331C87.0391 0.034397 84.7386 0.459386 82.4606 2.03546C79.7885 3.88511 76.8187 7.70313 77.242 12.3746C77.5345 15.5835 78.6718 17.9734 80.6212 19.4807C82.0364 20.5449 83.7647 21.1095 85.5353 21.086C85.9818 21.0881 86.4278 21.0536 86.8687 20.9828L86.9513 20.9673C89.8368 20.3719 92.9012 19.2191 95.9759 17.5846C96.1644 17.4845 96.3813 17.4512 96.5912 17.4899C96.8011 17.5286 96.9917 17.6372 97.1322 17.7979C98.1852 19.0023 99.6184 19.8334 101.367 20.2377C104.445 20.9501 108.161 20.2377 111.835 18.2195C115.334 16.3027 118.505 13.3157 120.849 9.74549C120.918 9.63842 120.964 9.51866 120.986 9.3933C121.008 9.26793 121.004 9.13948 120.975 9.01553C120.947 8.89157 120.894 8.77462 120.819 8.67156C120.744 8.5685 120.65 8.48142 120.541 8.41546ZM81.5779 11.3783C80.8896 10.7624 81.5985 8.81636 83.1763 7.03037C84.7541 5.24439 86.6003 4.29633 87.2955 4.91059C87.9906 5.52485 87.2765 7.47257 85.697 9.25856C84.1175 11.0445 82.2799 11.9943 81.5779 11.3783ZM99.1625 10.9138C98.4656 10.2978 99.1814 8.3518 100.761 6.56581C102.34 4.77982 104.183 3.83005 104.88 4.44603C105.577 5.062 104.861 7.00801 103.282 8.79399C101.702 10.58 99.8645 11.528 99.1676 10.9138H99.1625Z" fill="#FF7373"/>
</svg>
