<svg width="390" height="404" viewBox="0 0 390 404" fill="none" xmlns="http://www.w3.org/2000/svg">
<rect x="-87" width="241" height="113" rx="56.5" fill="#DFFF9B"/>
<rect x="302" y="3" width="235" height="107" rx="53.5" stroke="#DFFF9B" stroke-width="6"/>
<rect x="58" y="146" width="235" height="107" rx="53.5" stroke="#DFFF9B" stroke-width="6"/>
<rect x="190" y="286" width="241" height="113" rx="56.5" fill="#DFFF9B"/>
<path d="M117.925 212.125C118.365 215.15 121.445 219.825 128.705 219.825C135.25 219.825 138.385 215.37 138.385 211.63C138.385 207.725 135.855 204.81 131.07 203.765L126.78 202.83C124.745 202.39 123.755 201.235 123.755 199.64C123.755 197.825 125.515 196.12 128.155 196.12C132.335 196.12 133.435 199.145 133.655 200.52L138.22 198.815C137.67 196.45 135.415 191.72 128.155 191.72C122.985 191.72 118.75 195.57 118.75 200.08C118.75 203.82 121.225 206.625 125.35 207.505L129.86 208.495C132.06 208.99 133.27 210.255 133.27 211.905C133.27 213.775 131.675 215.425 128.76 215.425C125.02 215.425 122.93 213.225 122.6 210.475L117.925 212.125ZM143.081 211.905C143.081 216.085 146.546 219.825 151.936 219.825C156.666 219.825 159.306 217.295 160.461 215.425C160.461 217.35 160.626 218.34 160.736 219H165.796C165.686 218.34 165.466 216.965 165.466 214.655V201.4C165.466 196.23 162.386 191.72 154.466 191.72C148.746 191.72 144.181 195.24 143.631 200.3L148.581 201.455C148.911 198.375 150.946 196.12 154.576 196.12C158.591 196.12 160.296 198.265 160.296 200.85C160.296 201.785 159.856 202.61 158.261 202.83L151.111 203.875C146.546 204.535 143.081 207.175 143.081 211.905ZM152.651 215.48C150.011 215.48 148.361 213.61 148.361 211.63C148.361 209.265 150.011 208 152.211 207.67L160.296 206.46V207.67C160.296 213.445 156.886 215.48 152.651 215.48ZM178.69 219V179.18H173.52V219H178.69ZM204.651 215.81C204.651 216.91 204.761 218.395 204.871 219H209.821C209.711 218.065 209.546 216.195 209.546 214.105V192.545H204.376V208.495C204.376 212.51 202.286 215.26 198.106 215.26C193.761 215.26 192.111 212.07 192.111 208.44V192.545H186.941V209.21C186.941 215.205 190.681 219.825 196.841 219.825C199.921 219.825 203.221 218.56 204.651 215.81ZM225.299 184.185H220.569V188.475C220.569 190.785 219.359 192.545 216.499 192.545H215.069V197.22H220.129V211.74C220.129 216.525 222.989 219.275 227.499 219.275C229.259 219.275 230.579 218.945 231.019 218.78V214.38C230.579 214.49 229.644 214.6 228.984 214.6C226.289 214.6 225.299 213.39 225.299 210.97V197.22H231.019V192.545H225.299V184.185Z" fill="#DFFF9B"/>
<path d="M223.75 354.905C223.75 359.085 227.215 362.825 232.605 362.825C237.335 362.825 239.975 360.295 241.13 358.425C241.13 360.35 241.295 361.34 241.405 362H246.465C246.355 361.34 246.135 359.965 246.135 357.655V344.4C246.135 339.23 243.055 334.72 235.135 334.72C229.415 334.72 224.85 338.24 224.3 343.3L229.25 344.455C229.58 341.375 231.615 339.12 235.245 339.12C239.26 339.12 240.965 341.265 240.965 343.85C240.965 344.785 240.525 345.61 238.93 345.83L231.78 346.875C227.215 347.535 223.75 350.175 223.75 354.905ZM233.32 358.48C230.68 358.48 229.03 356.61 229.03 354.63C229.03 352.265 230.68 351 232.88 350.67L240.965 349.46V350.67C240.965 356.445 237.555 358.48 233.32 358.48ZM259.359 346.71C259.359 342.695 261.449 339.45 265.519 339.45C270.139 339.45 271.679 342.42 271.679 346.105V362H276.849V345.225C276.849 339.34 273.714 334.775 267.389 334.775C264.309 334.775 261.174 336.04 259.249 339.34V335.545H254.189V362H259.359V346.71ZM291.673 373.055L308.888 335.545H303.333L295.413 353.805L287.163 335.545H281.223L292.608 359.085L286.008 373.055H291.673ZM316.143 346.05C316.363 342.64 319.003 339.285 323.348 339.285C328.023 339.285 330.498 342.255 330.608 346.05H316.143ZM331.378 352.925C330.388 355.895 328.243 358.26 323.953 358.26C319.498 358.26 316.088 354.96 315.978 350.23H335.888C335.943 349.9 335.998 349.24 335.998 348.58C335.998 340.33 331.433 334.72 323.293 334.72C316.638 334.72 310.643 340.385 310.643 348.69C310.643 357.655 316.858 362.825 323.953 362.825C330.113 362.825 334.348 359.14 335.833 354.465L331.378 352.925ZM353.927 358.205C349.527 358.205 345.677 354.905 345.677 348.745C345.677 342.64 349.527 339.34 353.927 339.34C358.327 339.34 362.177 342.64 362.177 348.745C362.177 354.905 358.327 358.205 353.927 358.205ZM353.927 334.72C346.007 334.72 340.397 340.715 340.397 348.745C340.397 356.83 346.007 362.825 353.927 362.825C361.847 362.825 367.457 356.83 367.457 348.745C367.457 340.715 361.847 334.72 353.927 334.72ZM379.242 346.71C379.242 342.695 381.332 339.45 385.402 339.45C390.022 339.45 391.562 342.42 391.562 346.105V362H396.732V345.225C396.732 339.34 393.597 334.775 387.272 334.775C384.192 334.775 381.057 336.04 379.132 339.34V335.545H374.072V362H379.242V346.71ZM403.031 363.43C403.691 369.095 408.641 373.275 415.241 373.275C425.196 373.275 428.496 366.73 428.496 360.02V335.545H423.381V339.23C422.061 336.59 419.311 335.05 415.241 335.05C407.981 335.05 403.086 340.77 403.086 347.92C403.086 355.4 408.201 360.735 415.241 360.735C419.201 360.735 422.061 358.81 423.326 356.39V360.185C423.326 365.905 420.796 368.765 415.241 368.765C411.226 368.765 408.421 365.96 408.036 362.275L403.031 363.43ZM416.011 356.39C411.336 356.39 408.366 353.09 408.366 347.92C408.366 342.805 411.446 339.45 416.011 339.45C420.466 339.45 423.546 342.805 423.546 347.92C423.546 353.035 420.466 356.39 416.011 356.39Z" fill="#1F2451"/>
<path d="M-3.49 53.505C1.02 53.505 2.945 56.53 3.605 59.115L8.28 57.135C7.18 53.12 3.55 48.72 -3.49 48.72C-11.025 48.72 -16.8 54.495 -16.8 62.745C-16.8 70.775 -11.135 76.825 -3.435 76.825C3.44 76.825 7.235 72.37 8.5 68.575L3.935 66.595C3.33 68.685 1.515 72.04 -3.435 72.04C-7.725 72.04 -11.52 68.795 -11.52 62.745C-11.52 56.585 -7.67 53.505 -3.49 53.505ZM19.68 76V49.545H14.565V76H19.68ZM13.41 39.535C13.41 41.57 15.06 43.22 17.095 43.22C19.185 43.22 20.835 41.57 20.835 39.535C20.835 37.445 19.185 35.795 17.095 35.795C15.06 35.795 13.41 37.445 13.41 39.535ZM26.8262 68.905C26.8262 73.085 30.2912 76.825 35.6812 76.825C40.4112 76.825 43.0512 74.295 44.2062 72.425C44.2062 74.35 44.3712 75.34 44.4812 76H49.5412C49.4312 75.34 49.2112 73.965 49.2112 71.655V58.4C49.2112 53.23 46.1312 48.72 38.2112 48.72C32.4912 48.72 27.9262 52.24 27.3762 57.3L32.3262 58.455C32.6562 55.375 34.6912 53.12 38.3212 53.12C42.3362 53.12 44.0412 55.265 44.0412 57.85C44.0412 58.785 43.6012 59.61 42.0062 59.83L34.8562 60.875C30.2912 61.535 26.8262 64.175 26.8262 68.905ZM36.3962 72.48C33.7562 72.48 32.1062 70.61 32.1062 68.63C32.1062 66.265 33.7562 65 35.9562 64.67L44.0412 63.46V64.67C44.0412 70.445 40.6312 72.48 36.3962 72.48ZM68.5952 72.205C64.1952 72.205 60.3452 68.905 60.3452 62.745C60.3452 56.64 64.1952 53.34 68.5952 53.34C72.9952 53.34 76.8452 56.64 76.8452 62.745C76.8452 68.905 72.9952 72.205 68.5952 72.205ZM68.5952 48.72C60.6752 48.72 55.0652 54.715 55.0652 62.745C55.0652 70.83 60.6752 76.825 68.5952 76.825C76.5152 76.825 82.1252 70.83 82.1252 62.745C82.1252 54.715 76.5152 48.72 68.5952 48.72Z" fill="#1F2451"/>
<path fill-rule="evenodd" clip-rule="evenodd" d="M133.624 326.739L133.784 327.129L133.952 327.518L134.128 327.903L134.311 328.287L134.502 328.67L134.7 329.051L134.905 329.431L135.117 329.81L135.337 330.19L135.563 330.57L135.796 330.95L136.035 331.331L136.281 331.713L136.534 332.096L136.792 332.481L137.057 332.868L137.328 333.258L137.604 333.65L137.886 334.045L138.173 334.443L138.466 334.844L138.763 335.249L139.066 335.658L139.372 336.071L139.684 336.489L139.999 336.911L140.317 337.338L140.64 337.771L140.965 338.208L141.293 338.651L141.624 339.1L141.956 339.554L142.29 340.015L142.626 340.482L142.962 340.955L143.298 341.434L143.635 341.92L143.97 342.413L144.305 342.913L144.638 343.419L144.968 343.932L145.296 344.451L145.62 344.978L145.94 345.511L146.255 346.051L146.565 346.598L146.868 347.151L147.165 347.711L147.454 348.277L147.735 348.849L148.007 349.426L148.269 350.01L148.52 350.598L148.76 351.192L148.988 351.79L149.203 352.392L149.405 352.999L149.592 353.609L149.764 354.222L149.921 354.837L150.06 355.454L150.183 356.073L150.288 356.693L150.374 357.313L150.441 357.933L150.489 358.552L150.516 359.17L150.523 359.785L150.509 360.398L150.474 361.007L150.416 361.613L150.337 362.213L150.236 362.808L150.112 363.397L149.966 363.979L149.798 364.554L149.607 365.121L149.394 365.679L149.159 366.229L148.902 366.768L148.624 367.297L148.324 367.816L148.004 368.323L147.663 368.819L147.303 369.303L146.923 369.775L146.525 370.234L146.109 370.68L145.675 371.113L145.225 371.532L144.759 371.938L144.278 372.331L143.783 372.71L143.275 373.075L142.754 373.427L142.221 373.765L141.678 374.089L141.125 374.4L140.562 374.698L139.991 374.983L139.413 375.255L138.828 375.514L138.238 375.761L137.642 375.997L137.043 376.22L136.439 376.432L135.833 376.633L135.225 376.824L134.616 377.004L134.006 377.175L133.395 377.336L132.785 377.488L132.177 377.631L131.569 377.767L130.964 377.895L130.361 378.015L129.761 378.129L129.165 378.236L128.572 378.338L127.983 378.433L127.399 378.524L126.819 378.61L126.244 378.692L125.674 378.77L125.109 378.845L124.55 378.917L123.997 378.986L123.449 379.053L122.907 379.118L122.371 379.182L121.842 379.244L121.318 379.306L120.8 379.368L120.289 379.43L119.784 379.492L119.284 379.555L118.791 379.618L118.304 379.684L117.823 379.751L117.348 379.82L116.879 379.891L116.415 379.965L115.958 380.042L115.505 380.123L115.058 380.207L114.617 380.295L114.18 380.387L113.749 380.484L113.322 380.585L112.9 380.692L112.483 380.804L112.07 380.922L111.661 381.046L111.256 381.177L110.855 381.314L110.457 381.459L110.063 381.611L109.672 381.771L109.283 381.938L108.897 382.113L108.513 382.296L108.131 382.486L107.75 382.684L107.37 382.888L106.99 383.1L106.61 383.319L106.231 383.544L105.851 383.777L105.47 384.016L105.088 384.261L104.705 384.513L104.32 384.771L103.933 385.035L103.544 385.306L103.152 385.582L102.757 385.863L102.359 386.15L101.958 386.442L101.553 386.739L101.145 387.041L100.732 387.348L100.314 387.658L99.8926 387.973L99.4659 388.292L99.034 388.614L98.5969 388.939L98.1544 389.267L97.7061 389.597L97.252 389.929L96.7919 390.263L96.3256 390.599L95.8531 390.935L95.374 391.271L94.8885 391.608L94.3963 391.943L93.8975 392.278L93.3918 392.611L92.8794 392.942L92.3602 393.269L91.8342 393.594L91.3014 393.914L90.7618 394.23L90.2157 394.54L89.663 394.844L89.1039 395.141L88.5386 395.431L87.9672 395.712L87.3899 395.985L86.8071 396.248L86.2189 396.5L85.6258 396.741L85.0279 396.97L84.4257 397.186L83.8196 397.389L83.21 397.578L82.5974 397.751L81.9822 397.908L81.3649 398.05L80.7461 398.174L80.1263 398.28L79.5061 398.368L78.8861 398.436L78.2669 398.486L77.6491 398.515L77.0334 398.523L76.4204 398.511L75.8109 398.477L75.2053 398.422L74.6045 398.344L74.0091 398.245L73.4196 398.123L72.8369 397.979L72.2614 397.812L71.6938 397.623L71.1348 397.412L70.5849 397.179L70.0445 396.923L69.5144 396.647L68.9949 396.349L68.4866 396.03L67.9897 395.691L67.5049 395.332L67.0323 394.954L66.5723 394.557L66.1252 394.142L65.6913 393.71L65.2706 393.261L64.8634 392.797L64.4698 392.317L64.0898 391.823L63.7235 391.316L63.3708 390.796L63.0318 390.264L62.7062 389.721L62.3941 389.169L62.0952 388.607L61.8093 388.037L61.5363 387.459L61.2759 386.875L61.0278 386.285L60.7917 385.69L60.5674 385.09L60.3544 384.487L60.1524 383.881L59.961 383.273L59.7799 382.664L59.6086 382.054L59.4467 381.444L59.2939 380.834L59.1496 380.225L59.0135 379.617L58.8852 379.012L58.7641 378.409L58.6499 377.809L58.5421 377.212L58.4403 376.619L58.344 376.03L58.2528 375.445L58.1663 374.865L58.0841 374.289L58.0057 373.719L57.9307 373.154L57.8588 372.594L57.7894 372.04L57.7223 371.492L57.6571 370.95L57.5933 370.414L57.5305 369.883L57.4685 369.359L57.4069 368.841L57.3452 368.329L57.2832 367.824L57.2205 367.324L57.1567 366.83L57.0916 366.343L57.0248 365.861L56.9559 365.386L56.8847 364.916L56.8109 364.452L56.734 363.994L56.6539 363.541L56.5702 363.094L56.4825 362.652L56.3907 362.215L56.2943 361.783L56.1931 361.356L56.0868 360.934L55.975 360.516L55.8574 360.102L55.7337 359.693L55.6036 359.288L55.4668 358.886L55.3228 358.488L55.1714 358.094L55.0123 357.703L54.8454 357.314L54.6709 356.928L54.4888 356.544L54.2993 356.161L54.1025 355.78L53.8984 355.4L53.6872 355.02L53.469 354.64L53.244 354.261L53.0121 353.881L52.7736 353.5L52.5286 353.118L52.2772 352.735L52.0196 352.35L51.7558 351.964L51.4861 351.574L51.2107 351.183L50.9296 350.788L50.6431 350.391L50.3514 349.99L50.0546 349.586L49.7531 349.177L49.447 348.765L49.1366 348.348L48.8221 347.926L48.5039 347.5L48.1822 347.069L47.8573 346.632L47.5297 346.19L47.1995 345.742L46.8673 345.288L46.5334 344.829L46.1982 344.363L45.8621 343.891L45.5256 343.412L45.1892 342.927L44.8534 342.436L44.5187 341.937L44.1856 341.432L43.8547 340.92L43.5266 340.402L43.202 339.876L42.8813 339.344L42.5653 338.805L42.2547 338.259L41.9501 337.707L41.6523 337.149L41.3619 336.584L41.0797 336.013L40.8064 335.436L40.5428 334.854L40.2896 334.266L40.0476 333.673L39.8176 333.076L39.6003 332.474L39.3965 331.868L39.207 331.259L39.0324 330.646L38.8735 330.031L38.731 329.414L38.6056 328.795L38.498 328.176L38.4087 327.555L38.3384 326.935L38.2876 326.316L38.2569 325.698L38.2467 325.082L38.2575 324.469L38.2896 323.859L38.3433 323.253L38.4189 322.652L38.5167 322.056L38.6368 321.466L38.7792 320.883L38.944 320.307L39.1312 319.739L39.3406 319.179L39.5722 318.628L39.8256 318.087L40.1006 317.556L40.3968 317.036L40.7139 316.527L41.0514 316.029L41.4088 315.543L41.7854 315.069L42.1808 314.608L42.5943 314.16L43.0251 313.725L43.4726 313.304L43.936 312.895L44.4145 312.501L44.9073 312.12L45.4136 311.752L45.9326 311.398L46.4634 311.058L47.0051 310.732L47.5569 310.418L48.118 310.118L48.6875 309.832L49.2645 309.558L49.8483 309.296L50.438 309.047L51.0328 308.81L51.632 308.585L52.2347 308.371L52.8403 308.168L53.4481 307.976L54.0574 307.794L54.6675 307.622L55.2779 307.459L55.8878 307.306L56.4969 307.161L57.1044 307.024L57.7101 306.895L58.3133 306.773L58.9136 306.659L59.5107 306.55L60.1042 306.448L60.6937 306.351L61.2789 306.26L61.8595 306.173L62.4353 306.09L63.006 306.012L63.5714 305.937L64.1314 305.864L64.6858 305.795L65.2344 305.728L65.7771 305.662L66.3139 305.598L66.8447 305.535L67.3693 305.473L67.8879 305.412L68.4003 305.35L68.9066 305.288L69.4067 305.225L69.9008 305.162L70.3887 305.097L70.8707 305.03L71.3468 304.961L71.8169 304.89L72.2814 304.817L72.7401 304.74L73.1933 304.66L73.6411 304.577L74.0835 304.49L74.5208 304.398L74.9531 304.302L75.3805 304.201L75.8032 304.095L76.2213 303.984L76.6351 303.867L77.0446 303.744L77.4502 303.614L77.852 303.478L78.2501 303.334L78.6449 303.184L79.0365 303.025L79.4253 302.859L79.8116 302.685L80.1959 302.504L80.5785 302.315L80.9599 302.118L81.3402 301.915L81.72 301.704L82.0995 301.487L82.479 301.262L82.859 301.031L83.2397 300.793L83.6214 300.548L84.0044 300.297L84.3891 300.04L84.7758 299.777L85.1646 299.508L85.556 299.233L85.9502 298.952L86.3474 298.666L86.7481 298.375L87.1523 298.078L87.5603 297.777L87.9725 297.471L88.3891 297.161L88.8102 296.847L89.2361 296.529L89.6671 296.208L90.1034 295.883L90.5451 295.556L90.9924 295.226L91.4456 294.894L91.9047 294.56L92.37 294.225L92.8416 293.889L93.3195 293.552L93.804 293.216L94.2951 292.88L94.7929 292.545L95.2975 292.212L95.8088 291.881L96.327 291.553L96.8519 291.228L97.3836 290.907L97.9221 290.59L98.4672 290.279L99.0188 289.974L99.5769 289.676L100.141 289.385L100.712 289.102L101.288 288.828L101.87 288.563L102.457 288.309L103.05 288.066L103.647 287.835L104.248 287.617L104.854 287.412L105.463 287.221L106.075 287.046L106.69 286.885L107.307 286.742L107.926 286.615L108.545 286.506L109.165 286.415L109.786 286.343L110.405 286.291L111.023 286.259L111.639 286.247L112.252 286.256L112.863 286.286L113.469 286.338L114.07 286.412L114.667 286.508L115.257 286.626L115.841 286.767L116.418 286.93L116.987 287.115L117.547 287.323L118.098 287.553L118.64 287.805L119.172 288.078L119.693 288.372L120.204 288.688L120.702 289.024L121.189 289.379L121.664 289.755L122.126 290.149L122.575 290.561L123.011 290.99L123.434 291.436L123.843 291.898L124.239 292.376L124.621 292.867L124.989 293.373L125.344 293.891L125.685 294.421L126.013 294.961L126.327 295.512L126.628 296.073L126.916 296.642L127.191 297.218L127.454 297.801L127.704 298.391L127.942 298.985L128.168 299.584L128.383 300.186L128.586 300.792L128.78 301.4L128.962 302.009L129.135 302.619L129.298 303.229L129.453 303.839L129.598 304.448L129.736 305.056L129.865 305.662L129.987 306.265L130.103 306.866L130.211 307.463L130.314 308.057L130.411 308.647L130.503 309.232L130.591 309.813L130.673 310.389L130.752 310.961L130.828 311.526L130.9 312.087L130.97 312.642L131.037 313.191L131.103 313.734L131.167 314.271L131.23 314.802L131.292 315.328L131.354 315.847L131.415 316.36L131.477 316.866L131.54 317.367L131.603 317.861L131.668 318.35L131.735 318.832L131.803 319.309L131.874 319.78L131.947 320.244L132.024 320.704L132.103 321.157L132.187 321.605L132.274 322.048L132.365 322.486L132.46 322.919L132.561 323.346L132.666 323.769L132.777 324.188L132.894 324.602L133.016 325.012L133.146 325.418L133.281 325.82L133.424 326.218L133.574 326.613L133.624 326.739Z" fill="#63FAD9"/>
<circle cx="92" cy="331" r="6" fill="#FFFDF5"/>
<circle cx="112" cy="325" r="6" fill="#FFFDF5"/>
<mask id="mask0_21_267" style="mask-type:alpha" maskUnits="userSpaceOnUse" x="86" y="325" width="12" height="12">
<circle cx="92" cy="331" r="6" fill="#FFFDF5"/>
</mask>
<g mask="url(#mask0_21_267)">
<circle cx="97" cy="330" r="6" fill="#1F2451"/>
</g>
<mask id="mask1_21_267" style="mask-type:alpha" maskUnits="userSpaceOnUse" x="106" y="319" width="12" height="12">
<circle cx="112" cy="325" r="6" fill="#FFFDF5"/>
</mask>
<g mask="url(#mask1_21_267)">
<circle cx="117" cy="324" r="6" fill="#1F2451"/>
</g>
<path d="M109.541 335C110.485 337.911 108.89 341.035 105.979 341.979C103.068 342.922 99.9433 341.327 99 338.416" stroke="#1F2451" stroke-width="3" stroke-linecap="round"/>
<path fill-rule="evenodd" clip-rule="evenodd" d="M262.844 62.5044L262.93 62.8686L263.186 63.238L263.612 63.6177L264.206 64.013L264.966 64.4287L265.888 64.8699L266.966 65.3409L268.191 65.8459L269.548 66.3882L271.02 66.9702L272.584 67.5929L274.209 68.2557L275.857 68.9557L277.487 69.6879L279.047 70.4443L280.484 71.2144L281.743 71.9852L282.769 72.7414L283.512 73.4665L283.932 74.1439L284 74.7574L283.704 75.2936L283.048 75.742L282.053 76.0962L280.755 76.3549L279.202 76.5212L277.452 76.6026L275.566 76.6103L273.607 76.5584L271.634 76.4624L269.7 76.3392L267.855 76.2055L266.138 76.0778L264.584 75.9723L263.22 75.9043L262.07 75.8892L261.157 75.9425L260.501 76.0809L260.127 76.323L260.059 76.6888L260.282 77.1827L260.762 77.8006L261.473 78.5391L262.387 79.3944L263.477 80.3615L264.715 81.4329L266.068 82.5982L267.498 83.8428L268.962 85.1475L270.413 86.4882L271.799 87.8364L273.065 89.1594L274.159 90.4222L275.032 91.5891L275.641 92.6261L275.956 93.5033L275.957 94.1973L275.642 94.693L275.021 94.9844L274.12 95.0754L272.974 94.9784L271.628 94.7136L270.129 94.3067L268.526 93.7867L266.868 93.1842L265.198 92.5296L263.553 91.8514L261.965 91.1754L260.46 90.5242L259.055 89.9172L257.766 89.3705L256.602 88.8972L255.566 88.508L254.663 88.2114L253.893 88.0145L253.253 87.923L252.742 87.9418L252.358 88.0754L252.096 88.3276L251.953 88.7023L251.925 89.2027L252.008 89.8319L252.197 90.5921L252.486 91.4846L252.868 92.5093L253.335 93.6638L253.876 94.943L254.479 96.3382L255.127 97.8361L255.802 99.4179L256.481 101.059L257.139 102.729L257.747 104.389L258.274 105.998L258.691 107.507L258.969 108.867L259.08 110.03L259.004 110.952L258.729 111.596L258.25 111.936L257.571 111.96L256.707 111.67L255.682 111.084L254.524 110.231L253.268 109.152L251.948 107.898L250.6 106.52L249.258 105.072L247.949 103.608L246.699 102.173L245.527 100.813L244.447 99.565L243.471 98.4618L242.607 97.5329L241.859 96.8054L241.231 96.3054L240.727 96.0612L240.351 96.105L240.1 96.4552L239.954 97.0891L239.894 97.9826L239.905 99.114L239.969 100.462L240.072 102.002L240.199 103.707L240.332 105.543L240.457 107.471L240.556 109.443L240.612 111.405L240.609 113.299L240.534 115.062L240.375 116.633L240.124 117.953L239.777 118.973L239.336 119.657L238.807 119.982L238.199 119.942L237.526 119.55L236.804 118.831L236.049 117.826L235.279 116.584L234.508 115.159L233.75 113.607L233.016 111.981L232.313 110.333L231.647 108.705L231.021 107.135L230.436 105.655L229.89 104.288L229.382 103.052L228.909 101.962L228.465 101.028L228.048 100.254L227.651 99.6468L227.27 99.2076L226.9 98.9381L226.536 98.8392L226.172 98.9109L225.803 99.1533L225.424 99.5656L225.03 100.146L224.616 100.894L224.177 101.803L223.709 102.869L223.206 104.082L222.667 105.429L222.088 106.893L221.469 108.45L220.809 110.071L220.112 111.719L219.382 113.352L218.627 114.919L217.857 116.368L217.086 117.643L216.328 118.689L215.6 119.456L214.918 119.903L214.299 120L213.756 119.733L213.3 119.106L212.938 118.137L212.672 116.861L212.499 115.327L212.411 113.59L212.398 111.713L212.445 109.757L212.538 107.783L212.66 105.845L212.794 103.992L212.922 102.263L213.03 100.695L213.102 99.3147L213.122 98.1474L213.074 97.2146L212.943 96.5378L212.71 96.1407L212.355 96.048L211.871 96.2486L211.263 96.7098L210.534 97.4029L209.687 98.3015L208.729 99.3788L207.665 100.606L206.507 101.951L205.268 103.376L203.967 104.839L202.628 106.293L201.279 107.685L199.953 108.963L198.684 110.073L197.508 110.965L196.459 111.596L195.568 111.935L194.859 111.961L194.347 111.671L194.039 111.074L193.933 110.195L194.015 109.067L194.268 107.735L194.664 106.246L195.177 104.65L195.774 102.995L196.425 101.324L197.103 99.6761L197.78 98.0829L198.434 96.5703L199.045 95.1578L199.597 93.8594L200.077 92.6845L200.473 91.639L200.777 90.7254L200.982 89.9441L201.082 89.2943L201.072 88.7735L200.948 88.379L200.705 88.1075L200.341 87.9553L199.85 87.9185L199.231 87.9927L198.482 88.1732L197.6 88.4544L196.585 88.8294L195.441 89.2899L194.171 89.8257L192.785 90.4241L191.294 91.0694L189.718 91.743L188.08 92.4225L186.412 93.0827L184.749 93.6954L183.134 94.2306L181.615 94.6576L180.241 94.9469L179.06 95.0721L178.118 95.0121L177.451 94.7531L177.086 94.2898L177.036 93.6266L177.302 92.7772L177.866 91.7638L178.699 90.6154L179.761 89.3655L181.004 88.0496L182.374 86.7032L183.818 85.3593L185.283 84.0471L186.722 82.7916L188.089 81.6126L189.348 80.5254L190.464 79.5411L191.408 78.6676L192.152 77.9102L192.672 77.2729L192.937 76.759L192.918 76.3725L192.591 76.112L191.979 75.9584L191.105 75.8927L189.992 75.898L188.66 75.9585L187.134 76.0592L185.441 76.1843L183.614 76.3182L181.692 76.4442L179.721 76.5456L177.756 76.6057L175.854 76.6084L174.078 76.5396L172.49 76.3874L171.148 76.1438L170.102 75.8048L169.39 75.3711L169.036 74.8483L169.047 74.2462L169.412 73.578L170.106 72.8594L171.09 72.107L172.315 71.3375L173.728 70.5663L175.272 69.807L176.894 69.0704L178.543 68.3648L180.174 67.6958L181.749 67.0666L183.238 66.4782L184.615 65.9297L185.862 65.419L186.964 64.9428L187.911 64.4972L188.697 64.0777L189.318 63.6795L189.771 63.2976L190.054 62.9269L190.167 62.5622L190.109 62.1984L189.88 61.8301L189.481 61.4524L188.913 61.0599L188.179 60.6478L187.282 60.211L186.229 59.745L185.027 59.2457L183.69 58.7095L182.234 58.1339L180.683 57.5177L179.066 56.8612L177.418 56.1668L175.783 55.4393L174.208 54.6861L172.747 53.9174L171.456 53.1457L170.39 52.3861L169.599 51.6549L169.126 50.9689L169 50.3441L169.238 49.7948L169.837 49.332L170.78 48.9625L172.033 48.6887L173.549 48.5081L175.272 48.4138L177.14 48.3952L179.092 48.4387L181.067 48.5288L183.01 48.6488L184.872 48.7819L186.612 48.9116L188.194 49.0217L189.59 49.0967L190.776 49.1213L191.728 49.0799L192.426 48.9563L192.846 48.7321L192.964 48.3869L192.785 47.9131L192.344 47.3147L191.668 46.5952L190.785 45.7582L189.72 44.8085L188.504 43.753L187.167 42.6018L185.747 41.3687L184.285 40.0721L182.828 38.7353L181.429 37.3863L180.14 36.0569L179.015 34.7822L178.104 33.5976L177.45 32.5378L177.087 31.6334L177.035 30.9089L177.301 30.381L177.874 30.0571L178.732 29.9348L179.842 30.003L181.16 30.2427L182.638 30.6289L184.227 31.1329L185.879 31.7243L187.551 32.3725L189.202 33.0488L190.8 33.7268L192.32 34.3833L193.742 34.9985L195.05 35.5558L196.235 36.0415L197.291 36.4447L198.215 36.7566L199.007 36.9698L199.667 37.0784L200.198 37.0775L200.603 36.9625L200.884 36.7294L201.045 36.3744L201.091 35.8942L201.026 35.2858L200.853 34.5466L200.58 33.6751L200.212 32.6714L199.758 31.5373L199.228 30.2775L198.634 28.9L197.992 27.4174L197.319 25.8474L196.639 24.2137L195.977 22.5464L195.359 20.8817L194.816 19.2619L194.38 17.7337L194.078 16.3463L193.939 15.1484L193.984 14.1854L194.227 13.4952L194.674 13.1056L195.322 13.0311L196.157 13.2718L197.158 13.8128L198.297 14.6259L199.541 15.6714L200.853 16.9014L202.198 18.2633L203.543 19.7032L204.859 21.1687L206.12 22.6107L207.306 23.9854L208.401 25.2538L209.394 26.3822L210.277 27.3407L211.043 28.102L211.69 28.64L212.214 28.927L212.611 28.9314L212.881 28.629L213.043 28.0385L213.115 27.1849L213.114 26.09L213.058 24.7752L212.96 23.2639L212.836 21.5831L212.702 19.7652L212.575 17.8491L212.471 15.8808L212.407 13.913L212.399 12.0042L212.462 10.2162L212.607 8.611L212.843 7.24731L213.174 6.17609L213.601 5.43674L214.117 5.05397L214.713 5.03592L215.377 5.37371L216.092 6.0427L216.842 7.00496L217.611 8.21276L218.383 9.61243L219.144 11.1482L219.882 12.7655L220.591 14.4137L221.263 16.0476L221.895 17.6287L222.487 19.1252L223.039 20.5117L223.552 21.769L224.031 22.8828L224.479 23.8429L224.901 24.6422L225.3 25.2764L225.683 25.7425L226.055 26.0391L226.42 26.1652L226.784 26.1206L227.151 25.9054L227.528 25.5202L227.919 24.966L228.33 24.2452L228.764 23.3612L229.228 22.3198L229.725 21.1296L230.258 19.8027L230.83 18.356L231.443 16.8118L232.097 15.1987L232.788 13.5521L233.513 11.914L234.265 10.3327L235.033 8.861L235.805 7.55462L236.566 6.46863L237.3 5.65409L237.991 5.15409L238.621 5L239.177 5.20847L239.647 5.77954L240.024 6.69627L240.305 7.92595L240.493 9.42268L240.594 11.131L240.618 12.9899L240.579 14.9371L240.492 16.9121L240.374 18.8593L240.241 20.7293L240.111 22.4801L239.998 24.0761L239.92 25.4878L239.891 26.6906L239.926 27.6621L240.043 28.3812L240.258 28.8246L240.593 28.9665L241.057 28.8103L241.646 28.3886L242.356 27.7306L243.184 26.863L244.125 25.8123L245.172 24.6069L246.316 23.2785L247.544 21.8634L248.836 20.4033L250.171 18.9449L251.52 17.539L252.852 16.2392L254.133 15.0993L255.326 14.1696L256.397 13.4943L257.315 13.1073L258.054 13.0303L258.598 13.2704L258.939 13.8196L259.077 14.6565L259.023 15.7474L258.796 17.0502L258.421 18.5173L257.925 20.0994L257.339 21.7482L256.694 23.4192L256.019 25.0731L255.34 26.6769L254.681 28.2038L254.062 29.6333L253.5 30.9507L253.008 32.1456L252.598 33.212L252.278 34.1467L252.057 34.949L251.94 35.6197L251.932 36.1608L252.038 36.5752L252.261 36.8661L252.606 37.037L253.076 37.0919L253.675 37.0351L254.403 36.8711L255.264 36.6056L256.258 36.2451L257.382 35.7975L258.632 35.2729L260.001 34.6835L261.475 34.0445L263.039 33.3741L264.669 32.6938L266.335 32.0287L268.002 31.4065L269.627 30.8569L271.164 30.4106L272.565 30.0976L273.78 29.9447L274.763 29.974L275.476 30.2007L275.891 30.6315L275.99 31.2636L275.774 32.0846L275.256 33.0737L274.464 34.2028L273.435 35.4389L272.218 36.7466L270.864 38.0904L269.428 39.4368L267.963 40.7558L266.517 42.0218L265.135 43.2142L263.857 44.3168L262.716 45.3181L261.743 46.2097L260.965 46.9858L260.408 47.6425L260.1 48.1763L260.072 48.5834L260.35 48.8629L260.919 49.0322L261.752 49.1107L262.829 49.1157L264.127 49.0629L265.624 48.9676L267.293 48.8453L269.101 48.7118L271.011 48.5834L272.977 48.4769L274.947 48.4092L276.863 48.3963L278.663 48.4529L280.285 48.5911L281.671 48.8198L282.767 49.1435L283.534 49.5624L283.945 50.0715L283.992 50.6618L283.682 51.3205L283.038 52.0322L282.098 52.7803L280.907 53.5482L279.521 54.32L277.994 55.0821L276.381 55.8229L274.733 56.5339L273.097 57.209L271.51 57.8446L270.005 58.4395L268.609 58.9943L267.341 59.5108L266.215 59.9923L265.243 60.4424L264.43 60.8658L263.783 61.267L263.303 61.6512L262.993 62.0233L262.853 62.3886L262.844 62.5044Z" fill="#FF7373"/>
<path d="M203.472 46L208.129 59.0881" stroke="#FFFDF5" stroke-width="3" stroke-linecap="round"/>
<path d="M226.472 52L231.129 65.0881" stroke="#FFFDF5" stroke-width="3" stroke-linecap="round"/>
<path d="M201 57.0973L211 47.9361" stroke="#FFFDF5" stroke-width="3" stroke-linecap="round"/>
<path d="M224 63.0973L234 53.9361" stroke="#FFFDF5" stroke-width="3" stroke-linecap="round"/>
<path d="M212.416 73.4025C216.511 74.4999 220.721 72.0695 221.818 67.974L206.987 64C205.89 68.0955 208.32 72.3052 212.416 73.4025Z" fill="#1F2451"/>
</svg>
