<svg width="36" height="36" viewBox="0 0 36 36" fill="none" xmlns="http://www.w3.org/2000/svg">
<rect width="36" height="36" rx="10" fill="#FF7373"/>
<path d="M14.26 13.9117C13.5267 13.6 13.215 12.6925 13.655 12.0325C14.5442 10.7125 16.0292 9.75 17.9908 9.75C20.145 9.75 21.6208 10.7308 22.3725 11.9592C23.0142 13.0133 23.39 14.9842 22.4 16.4508C21.3 18.0733 20.2458 18.5683 19.6775 19.6133C19.54 19.8608 19.4575 20.0625 19.4025 20.475C19.32 21.1442 18.77 21.6667 18.0917 21.6667C17.2942 21.6667 16.6433 20.9792 16.735 20.1817C16.79 19.7142 16.9 19.2283 17.1567 18.77C17.8625 17.4958 19.2192 16.7442 20.0075 15.6167C20.8417 14.4342 20.3742 12.225 18.0092 12.225C16.9367 12.225 16.24 12.7842 15.8092 13.4533C15.4883 13.9758 14.8192 14.1408 14.26 13.9117ZM19.8333 25.3333C19.8333 26.3417 19.0083 27.1667 18 27.1667C16.9917 27.1667 16.1667 26.3417 16.1667 25.3333C16.1667 24.325 16.9917 23.5 18 23.5C19.0083 23.5 19.8333 24.325 19.8333 25.3333Z" fill="#FFFDF5"/>
</svg>
