<svg width="260" height="99" viewBox="0 0 260 99" fill="none" xmlns="http://www.w3.org/2000/svg">
<path d="M14.092 11.752C13.676 9.75 12.012 7.176 7.852 7.176C4.446 7.176 1.768 9.776 1.768 12.662C1.768 15.418 3.64 17.134 6.266 17.706L8.892 18.278C10.738 18.668 11.648 19.812 11.648 21.138C11.648 22.75 10.4 24.076 7.852 24.076C5.07 24.076 3.614 22.178 3.432 20.124L0.988 20.904C1.326 23.53 3.432 26.39 7.878 26.39C11.804 26.39 14.248 23.79 14.248 20.93C14.248 18.356 12.532 16.432 9.464 15.756L6.708 15.158C5.148 14.82 4.342 13.806 4.342 12.48C4.342 10.764 5.824 9.412 7.904 9.412C10.478 9.412 11.596 11.232 11.804 12.558L14.092 11.752ZM22.4902 15.366C24.6222 15.366 25.5322 16.796 25.8442 18.018L28.0542 17.082C27.5342 15.184 25.8182 13.104 22.4902 13.104C18.9282 13.104 16.1982 15.834 16.1982 19.734C16.1982 23.53 18.8762 26.39 22.5162 26.39C25.7662 26.39 27.5602 24.284 28.1582 22.49L26.0002 21.554C25.7142 22.542 24.8562 24.128 22.5162 24.128C20.4882 24.128 18.6942 22.594 18.6942 19.734C18.6942 16.822 20.5142 15.366 22.4902 15.366ZM30.1184 22.646C30.1184 24.622 31.7564 26.39 34.3044 26.39C36.5404 26.39 37.7884 25.194 38.3344 24.31C38.3344 25.22 38.4124 25.688 38.4644 26H40.8564C40.8044 25.688 40.7004 25.038 40.7004 23.946V17.68C40.7004 15.236 39.2444 13.104 35.5004 13.104C32.7964 13.104 30.6384 14.768 30.3784 17.16L32.7184 17.706C32.8744 16.25 33.8364 15.184 35.5524 15.184C37.4504 15.184 38.2564 16.198 38.2564 17.42C38.2564 17.862 38.0484 18.252 37.2944 18.356L33.9144 18.85C31.7564 19.162 30.1184 20.41 30.1184 22.646ZM34.6424 24.336C33.3944 24.336 32.6144 23.452 32.6144 22.516C32.6144 21.398 33.3944 20.8 34.4344 20.644L38.2564 20.072V20.644C38.2564 23.374 36.6444 24.336 34.6424 24.336ZM46.9517 18.772C46.9517 16.874 47.9397 15.34 49.8637 15.34C52.0477 15.34 52.7757 16.744 52.7757 18.486V26H55.2197V18.07C55.2197 15.288 53.7377 13.13 50.7477 13.13C49.2917 13.13 47.8097 13.728 46.8997 15.288V13.494H44.5077V26H46.9517V18.772ZM64.8273 22.646C64.8273 24.622 66.4653 26.39 69.0133 26.39C71.2493 26.39 72.4973 25.194 73.0433 24.31C73.0433 25.22 73.1213 25.688 73.1733 26H75.5653C75.5133 25.688 75.4093 25.038 75.4093 23.946V17.68C75.4093 15.236 73.9533 13.104 70.2093 13.104C67.5053 13.104 65.3473 14.768 65.0873 17.16L67.4273 17.706C67.5833 16.25 68.5453 15.184 70.2613 15.184C72.1593 15.184 72.9653 16.198 72.9653 17.42C72.9653 17.862 72.7573 18.252 72.0033 18.356L68.6233 18.85C66.4653 19.162 64.8273 20.41 64.8273 22.646ZM69.3513 24.336C68.1033 24.336 67.3233 23.452 67.3233 22.516C67.3233 21.398 68.1033 20.8 69.1433 20.644L72.9653 20.072V20.644C72.9653 23.374 71.3533 24.336 69.3513 24.336ZM81.6607 18.772C81.6607 16.874 82.6487 15.34 84.5727 15.34C86.7567 15.34 87.4847 16.744 87.4847 18.486V26H89.9287V18.07C89.9287 15.288 88.4467 13.13 85.4567 13.13C84.0007 13.13 82.5187 13.728 81.6087 15.288V13.494H79.2167V26H81.6607V18.772ZM96.9363 31.226L105.074 13.494H102.448L98.7043 22.126L94.8043 13.494H91.9963L97.3783 24.622L94.2583 31.226H96.9363ZM120.218 15.704V13.494H117.202V11.518C117.202 9.802 118.32 9.386 119.178 9.386C119.802 9.386 120.114 9.49 120.244 9.542V7.358C120.14 7.28 119.62 7.098 118.788 7.098C116.526 7.098 114.68 8.606 114.68 11.388V13.494H112.366V15.704H114.68V26H117.202V15.704H120.218ZM127.686 24.206C125.606 24.206 123.786 22.646 123.786 19.734C123.786 16.848 125.606 15.288 127.686 15.288C129.766 15.288 131.586 16.848 131.586 19.734C131.586 22.646 129.766 24.206 127.686 24.206ZM127.686 13.104C123.942 13.104 121.29 15.938 121.29 19.734C121.29 23.556 123.942 26.39 127.686 26.39C131.43 26.39 134.082 23.556 134.082 19.734C134.082 15.938 131.43 13.104 127.686 13.104ZM144.151 13.364C144.021 13.338 143.683 13.286 143.345 13.286C142.071 13.286 140.511 13.754 139.601 15.678V13.494H137.209V26H139.653V19.734C139.653 16.978 141.031 15.886 143.085 15.886C143.423 15.886 143.787 15.912 144.151 15.964V13.364ZM148.215 18.46C148.319 16.848 149.567 15.262 151.621 15.262C153.831 15.262 155.001 16.666 155.053 18.46H148.215ZM155.417 21.71C154.949 23.114 153.935 24.232 151.907 24.232C149.801 24.232 148.189 22.672 148.137 20.436H157.549C157.575 20.28 157.601 19.968 157.601 19.656C157.601 15.756 155.443 13.104 151.595 13.104C148.449 13.104 145.615 15.782 145.615 19.708C145.615 23.946 148.553 26.39 151.907 26.39C154.819 26.39 156.821 24.648 157.523 22.438L155.417 21.71ZM163.139 26V13.494H160.721V26H163.139ZM160.175 8.762C160.175 9.724 160.955 10.504 161.917 10.504C162.905 10.504 163.685 9.724 163.685 8.762C163.685 7.774 162.905 6.994 161.917 6.994C160.955 6.994 160.175 7.774 160.175 8.762ZM166.387 26.676C166.699 29.354 169.039 31.33 172.159 31.33C176.865 31.33 178.425 28.236 178.425 25.064V13.494H176.007V15.236C175.383 13.988 174.083 13.26 172.159 13.26C168.727 13.26 166.413 15.964 166.413 19.344C166.413 22.88 168.831 25.402 172.159 25.402C174.031 25.402 175.383 24.492 175.981 23.348V25.142C175.981 27.846 174.785 29.198 172.159 29.198C170.261 29.198 168.935 27.872 168.753 26.13L166.387 26.676ZM172.523 23.348C170.313 23.348 168.909 21.788 168.909 19.344C168.909 16.926 170.365 15.34 172.523 15.34C174.629 15.34 176.085 16.926 176.085 19.344C176.085 21.762 174.629 23.348 172.523 23.348ZM184.772 18.772C184.772 16.874 185.76 15.34 187.684 15.34C189.868 15.34 190.596 16.744 190.596 18.486V26H193.04V18.07C193.04 15.288 191.558 13.13 188.568 13.13C187.112 13.13 185.63 13.728 184.72 15.288V13.494H182.328V26H184.772V18.772ZM206.704 9.542H204.468V11.57C204.468 12.662 203.896 13.494 202.544 13.494H201.868V15.704H204.26V22.568C204.26 24.83 205.612 26.13 207.744 26.13C208.576 26.13 209.2 25.974 209.408 25.896V23.816C209.2 23.868 208.758 23.92 208.446 23.92C207.172 23.92 206.704 23.348 206.704 22.204V15.704H209.408V13.494H206.704V9.542ZM214.129 18.46C214.233 16.848 215.481 15.262 217.535 15.262C219.745 15.262 220.915 16.666 220.967 18.46H214.129ZM221.331 21.71C220.863 23.114 219.849 24.232 217.821 24.232C215.715 24.232 214.103 22.672 214.051 20.436H223.463C223.489 20.28 223.515 19.968 223.515 19.656C223.515 15.756 221.357 13.104 217.509 13.104C214.363 13.104 211.529 15.782 211.529 19.708C211.529 23.946 214.467 26.39 217.821 26.39C220.733 26.39 222.735 24.648 223.437 22.438L221.331 21.71ZM224.688 26H227.6L230.772 21.398L233.996 26H236.934C236.18 24.986 233.086 20.644 232.332 19.63L236.778 13.494H233.892L230.876 17.888L227.808 13.494H224.844L229.342 19.63L224.688 26ZM242.682 9.542H240.446V11.57C240.446 12.662 239.874 13.494 238.522 13.494H237.846V15.704H240.238V22.568C240.238 24.83 241.59 26.13 243.722 26.13C244.554 26.13 245.178 25.974 245.386 25.896V23.816C245.178 23.868 244.736 23.92 244.424 23.92C243.15 23.92 242.682 23.348 242.682 22.204V15.704H245.386V13.494H242.682V9.542ZM1.3 55.646C1.3 57.622 2.938 59.39 5.486 59.39C7.722 59.39 8.97 58.194 9.516 57.31C9.516 58.22 9.594 58.688 9.646 59H12.038C11.986 58.688 11.882 58.038 11.882 56.946V50.68C11.882 48.236 10.426 46.104 6.682 46.104C3.978 46.104 1.82 47.768 1.56 50.16L3.9 50.706C4.056 49.25 5.018 48.184 6.734 48.184C8.632 48.184 9.438 49.198 9.438 50.42C9.438 50.862 9.23 51.252 8.476 51.356L5.096 51.85C2.938 52.162 1.3 53.41 1.3 55.646ZM5.824 57.336C4.576 57.336 3.796 56.452 3.796 55.516C3.796 54.398 4.576 53.8 5.616 53.644L9.438 53.072V53.644C9.438 56.374 7.826 57.336 5.824 57.336ZM18.1334 51.772C18.1334 49.874 19.1214 48.34 21.0454 48.34C23.2294 48.34 23.9574 49.744 23.9574 51.486V59H26.4014V51.07C26.4014 48.288 24.9194 46.13 21.9294 46.13C20.4734 46.13 18.9914 46.728 18.0814 48.288V46.494H15.6894V59H18.1334V51.772ZM31.745 52.708C31.745 50.134 33.201 48.314 35.437 48.314C37.673 48.314 39.025 50.082 39.025 52.656C39.025 55.23 37.647 57.18 35.411 57.18C33.071 57.18 31.745 55.282 31.745 52.708ZM39.051 57.31C39.051 58.064 39.129 58.714 39.181 59H41.547C41.521 58.792 41.417 57.882 41.417 56.686V40.176H38.999V48.262C38.583 47.248 37.387 46.156 35.177 46.156C31.641 46.156 29.249 49.172 29.249 52.708C29.249 56.426 31.511 59.338 35.177 59.338C37.127 59.338 38.453 58.298 39.051 57.102V57.31ZM50.9041 55.75C51.1121 57.18 52.5681 59.39 56.0001 59.39C59.0941 59.39 60.5761 57.284 60.5761 55.516C60.5761 53.67 59.3801 52.292 57.1181 51.798L55.0901 51.356C54.1281 51.148 53.6601 50.602 53.6601 49.848C53.6601 48.99 54.4921 48.184 55.7401 48.184C57.7161 48.184 58.2361 49.614 58.3401 50.264L60.4981 49.458C60.2381 48.34 59.1721 46.104 55.7401 46.104C53.2961 46.104 51.2941 47.924 51.2941 50.056C51.2941 51.824 52.4641 53.15 54.4141 53.566L56.5461 54.034C57.5861 54.268 58.1581 54.866 58.1581 55.646C58.1581 56.53 57.4041 57.31 56.0261 57.31C54.2581 57.31 53.2701 56.27 53.1141 54.97L50.9041 55.75ZM62.7961 55.646C62.7961 57.622 64.4341 59.39 66.9821 59.39C69.2181 59.39 70.4661 58.194 71.0121 57.31C71.0121 58.22 71.0901 58.688 71.1421 59H73.5341C73.4821 58.688 73.3781 58.038 73.3781 56.946V50.68C73.3781 48.236 71.9221 46.104 68.1781 46.104C65.4741 46.104 63.3161 47.768 63.0561 50.16L65.3961 50.706C65.5521 49.25 66.5141 48.184 68.2301 48.184C70.1281 48.184 70.9341 49.198 70.9341 50.42C70.9341 50.862 70.7261 51.252 69.9721 51.356L66.5921 51.85C64.4341 52.162 62.7961 53.41 62.7961 55.646ZM67.3201 57.336C66.0721 57.336 65.2921 56.452 65.2921 55.516C65.2921 54.398 66.0721 53.8 67.1121 53.644L70.9341 53.072V53.644C70.9341 56.374 69.3221 57.336 67.3201 57.336ZM80.0516 64.226L88.1896 46.494H85.5636L81.8196 55.126L77.9196 46.494H75.1116L80.4936 57.622L77.3736 64.226H80.0516ZM99.4849 51.642C99.5369 49.796 100.525 48.34 102.397 48.34C104.581 48.34 105.309 49.744 105.309 51.486V59H107.753V51.07C107.753 48.288 106.271 46.13 103.281 46.13C101.851 46.13 100.395 46.624 99.4849 47.95V40.176H97.0409V59H99.4849V51.642ZM113.227 51.46C113.331 49.848 114.579 48.262 116.633 48.262C118.843 48.262 120.013 49.666 120.065 51.46H113.227ZM120.429 54.71C119.961 56.114 118.947 57.232 116.919 57.232C114.813 57.232 113.201 55.672 113.149 53.436H122.561C122.587 53.28 122.613 52.968 122.613 52.656C122.613 48.756 120.455 46.104 116.607 46.104C113.461 46.104 110.627 48.782 110.627 52.708C110.627 56.946 113.565 59.39 116.919 59.39C119.831 59.39 121.833 57.648 122.535 55.438L120.429 54.71ZM128.176 59V40.176H125.732V59H128.176ZM134.778 59V40.176H132.334V59H134.778ZM144.291 57.206C142.211 57.206 140.391 55.646 140.391 52.734C140.391 49.848 142.211 48.288 144.291 48.288C146.371 48.288 148.191 49.848 148.191 52.734C148.191 55.646 146.371 57.206 144.291 57.206ZM144.291 46.104C140.547 46.104 137.895 48.938 137.895 52.734C137.895 56.556 140.547 59.39 144.291 59.39C148.035 59.39 150.687 56.556 150.687 52.734C150.687 48.938 148.035 46.104 144.291 46.104ZM163.59 42.542H161.354V44.57C161.354 45.662 160.782 46.494 159.43 46.494H158.754V48.704H161.146V55.568C161.146 57.83 162.498 59.13 164.63 59.13C165.462 59.13 166.086 58.974 166.294 58.896V56.816C166.086 56.868 165.644 56.92 165.332 56.92C164.058 56.92 163.59 56.348 163.59 55.204V48.704H166.294V46.494H163.59V42.542ZM174.786 57.206C172.706 57.206 170.886 55.646 170.886 52.734C170.886 49.848 172.706 48.288 174.786 48.288C176.866 48.288 178.686 49.848 178.686 52.734C178.686 55.646 176.866 57.206 174.786 57.206ZM174.786 46.104C171.042 46.104 168.39 48.938 168.39 52.734C168.39 56.556 171.042 59.39 174.786 59.39C178.53 59.39 181.182 56.556 181.182 52.734C181.182 48.938 178.53 46.104 174.786 46.104ZM0.91 88.75C1.118 90.18 2.574 92.39 6.006 92.39C9.1 92.39 10.582 90.284 10.582 88.516C10.582 86.67 9.386 85.292 7.124 84.798L5.096 84.356C4.134 84.148 3.666 83.602 3.666 82.848C3.666 81.99 4.498 81.184 5.746 81.184C7.722 81.184 8.242 82.614 8.346 83.264L10.504 82.458C10.244 81.34 9.178 79.104 5.746 79.104C3.302 79.104 1.3 80.924 1.3 83.056C1.3 84.824 2.47 86.15 4.42 86.566L6.552 87.034C7.592 87.268 8.164 87.866 8.164 88.646C8.164 89.53 7.41 90.31 6.032 90.31C4.264 90.31 3.276 89.27 3.12 87.97L0.91 88.75ZM17.1119 75.542H14.8759V77.57C14.8759 78.662 14.3039 79.494 12.9519 79.494H12.2759V81.704H14.6679V88.568C14.6679 90.83 16.0199 92.13 18.1519 92.13C18.9839 92.13 19.6079 91.974 19.8159 91.896V89.816C19.6079 89.868 19.1659 89.92 18.8539 89.92C17.5799 89.92 17.1119 89.348 17.1119 88.204V81.704H19.8159V79.494H17.1119V75.542ZM29.7661 79.364C29.6361 79.338 29.2981 79.286 28.9601 79.286C27.6861 79.286 26.1261 79.754 25.2161 81.678V79.494H22.8241V92H25.2681V85.734C25.2681 82.978 26.6461 81.886 28.7001 81.886C29.0381 81.886 29.4021 81.912 29.7661 81.964V79.364ZM33.8301 84.46C33.9341 82.848 35.1821 81.262 37.2361 81.262C39.4461 81.262 40.6161 82.666 40.6681 84.46H33.8301ZM41.0321 87.71C40.5641 89.114 39.5501 90.232 37.5221 90.232C35.4161 90.232 33.8041 88.672 33.7521 86.436H43.1641C43.1901 86.28 43.2161 85.968 43.2161 85.656C43.2161 81.756 41.0581 79.104 37.2101 79.104C34.0641 79.104 31.2301 81.782 31.2301 85.708C31.2301 89.946 34.1681 92.39 37.5221 92.39C40.4341 92.39 42.4361 90.648 43.1381 88.438L41.0321 87.71ZM45.1659 88.75C45.3739 90.18 46.8299 92.39 50.2619 92.39C53.3559 92.39 54.8379 90.284 54.8379 88.516C54.8379 86.67 53.6419 85.292 51.3799 84.798L49.3519 84.356C48.3899 84.148 47.9219 83.602 47.9219 82.848C47.9219 81.99 48.7539 81.184 50.0019 81.184C51.9779 81.184 52.4979 82.614 52.6019 83.264L54.7599 82.458C54.4999 81.34 53.4339 79.104 50.0019 79.104C47.5579 79.104 45.5559 80.924 45.5559 83.056C45.5559 84.824 46.7259 86.15 48.6759 86.566L50.8079 87.034C51.8479 87.268 52.4199 87.866 52.4199 88.646C52.4199 89.53 51.6659 90.31 50.2879 90.31C48.5199 90.31 47.5319 89.27 47.3759 87.97L45.1659 88.75ZM56.9217 88.75C57.1297 90.18 58.5857 92.39 62.0177 92.39C65.1117 92.39 66.5937 90.284 66.5937 88.516C66.5937 86.67 65.3977 85.292 63.1357 84.798L61.1077 84.356C60.1457 84.148 59.6777 83.602 59.6777 82.848C59.6777 81.99 60.5097 81.184 61.7577 81.184C63.7337 81.184 64.2537 82.614 64.3577 83.264L66.5157 82.458C66.2557 81.34 65.1897 79.104 61.7577 79.104C59.3137 79.104 57.3117 80.924 57.3117 83.056C57.3117 84.824 58.4817 86.15 60.4317 86.566L62.5637 87.034C63.6037 87.268 64.1757 87.866 64.1757 88.646C64.1757 89.53 63.4217 90.31 62.0437 90.31C60.2757 90.31 59.2877 89.27 59.1317 87.97L56.9217 88.75ZM75.9836 85.604V83.472H68.9376V85.604H75.9836ZM85.5341 81.704V79.494H82.5181V77.518C82.5181 75.802 83.6361 75.386 84.4941 75.386C85.1181 75.386 85.4301 75.49 85.5601 75.542V73.358C85.4561 73.28 84.9361 73.098 84.1041 73.098C81.8421 73.098 79.9961 74.606 79.9961 77.388V79.494H77.6821V81.704H79.9961V92H82.5181V81.704H85.5341ZM95.0962 79.364C94.9662 79.338 94.6282 79.286 94.2902 79.286C93.0162 79.286 91.4562 79.754 90.5462 81.678V79.494H88.1542V92H90.5982V85.734C90.5982 82.978 91.9762 81.886 94.0302 81.886C94.3682 81.886 94.7322 81.912 95.0962 81.964V79.364ZM99.1601 84.46C99.2641 82.848 100.512 81.262 102.566 81.262C104.776 81.262 105.946 82.666 105.998 84.46H99.1601ZM106.362 87.71C105.894 89.114 104.88 90.232 102.852 90.232C100.746 90.232 99.1341 88.672 99.0821 86.436H108.494C108.52 86.28 108.546 85.968 108.546 85.656C108.546 81.756 106.388 79.104 102.54 79.104C99.3941 79.104 96.5601 81.782 96.5601 85.708C96.5601 89.946 99.4981 92.39 102.852 92.39C105.764 92.39 107.766 90.648 108.468 88.438L106.362 87.71ZM113.252 84.46C113.356 82.848 114.604 81.262 116.658 81.262C118.868 81.262 120.038 82.666 120.09 84.46H113.252ZM120.454 87.71C119.986 89.114 118.972 90.232 116.944 90.232C114.838 90.232 113.226 88.672 113.174 86.436H122.586C122.612 86.28 122.638 85.968 122.638 85.656C122.638 81.756 120.48 79.104 116.632 79.104C113.486 79.104 110.652 81.782 110.652 85.708C110.652 89.946 113.59 92.39 116.944 92.39C119.856 92.39 121.858 90.648 122.56 88.438L120.454 87.71ZM135.534 75.542H133.298V77.57C133.298 78.662 132.726 79.494 131.374 79.494H130.698V81.704H133.09V88.568C133.09 90.83 134.442 92.13 136.574 92.13C137.406 92.13 138.03 91.974 138.238 91.896V89.816C138.03 89.868 137.588 89.92 137.276 89.92C136.002 89.92 135.534 89.348 135.534 88.204V81.704H138.238V79.494H135.534V75.542ZM148.188 79.364C148.058 79.338 147.72 79.286 147.382 79.286C146.108 79.286 144.548 79.754 143.638 81.678V79.494H141.246V92H143.69V85.734C143.69 82.978 145.068 81.886 147.122 81.886C147.46 81.886 147.824 81.912 148.188 81.964V79.364ZM150.013 88.646C150.013 90.622 151.651 92.39 154.199 92.39C156.435 92.39 157.683 91.194 158.229 90.31C158.229 91.22 158.307 91.688 158.359 92H160.751C160.699 91.688 160.595 91.038 160.595 89.946V83.68C160.595 81.236 159.139 79.104 155.395 79.104C152.691 79.104 150.533 80.768 150.273 83.16L152.613 83.706C152.769 82.25 153.731 81.184 155.447 81.184C157.345 81.184 158.151 82.198 158.151 83.42C158.151 83.862 157.943 84.252 157.189 84.356L153.809 84.85C151.651 85.162 150.013 86.41 150.013 88.646ZM154.537 90.336C153.289 90.336 152.509 89.452 152.509 88.516C152.509 87.398 153.289 86.8 154.329 86.644L158.151 86.072V86.644C158.151 89.374 156.539 90.336 154.537 90.336ZM175.114 79.494H172.488L168.9 89.14L165.338 79.494H162.582L167.652 92H170.122L175.114 79.494ZM178.658 84.46C178.762 82.848 180.01 81.262 182.064 81.262C184.274 81.262 185.444 82.666 185.496 84.46H178.658ZM185.86 87.71C185.392 89.114 184.378 90.232 182.35 90.232C180.244 90.232 178.632 88.672 178.58 86.436H187.992C188.018 86.28 188.044 85.968 188.044 85.656C188.044 81.756 185.886 79.104 182.038 79.104C178.892 79.104 176.058 81.782 176.058 85.708C176.058 89.946 178.996 92.39 182.35 92.39C185.262 92.39 187.264 90.648 187.966 88.438L185.86 87.71ZM193.608 92V73.176H191.164V92H193.608ZM196.596 88.75C196.804 90.18 198.26 92.39 201.692 92.39C204.786 92.39 206.268 90.284 206.268 88.516C206.268 86.67 205.072 85.292 202.81 84.798L200.782 84.356C199.82 84.148 199.352 83.602 199.352 82.848C199.352 81.99 200.184 81.184 201.432 81.184C203.408 81.184 203.928 82.614 204.032 83.264L206.19 82.458C205.93 81.34 204.864 79.104 201.432 79.104C198.988 79.104 196.986 80.924 196.986 83.056C196.986 84.824 198.156 86.15 200.106 86.566L202.238 87.034C203.278 87.268 203.85 87.866 203.85 88.646C203.85 89.53 203.096 90.31 201.718 90.31C199.95 90.31 198.962 89.27 198.806 87.97L196.596 88.75ZM213.005 73.566H209.937L210.613 86.722H212.355L213.005 73.566ZM209.781 90.44C209.781 91.376 210.535 92.13 211.471 92.13C212.407 92.13 213.187 91.376 213.187 90.44C213.187 89.504 212.407 88.724 211.471 88.724C210.535 88.724 209.781 89.504 209.781 90.44Z" fill="#FFFDF5"/>
</svg>
